<?xml version="1.0" encoding="utf-8"?>
<!-- Generator: Adobe Illustrator 27.3.1, SVG Export Plug-In . SVG Version: 6.00 Build 0)  -->
<svg version="1.1" id="Layer_1" xmlns="http://www.w3.org/2000/svg" xmlns:xlink="http://www.w3.org/1999/xlink" x="0px" y="0px"
	 viewBox="0 0 300 300" style="enable-background:new 0 0 300 300;" xml:space="preserve">
<style type="text/css">
	.st0{fill:#58595B;}
	.st1{fill:#414042;}
	.st2{stroke:#000000;stroke-width:23.8638;stroke-linecap:round;stroke-miterlimit:10;}
	.st3{stroke:#000000;stroke-width:5.9659;stroke-linejoin:round;stroke-miterlimit:10;}
	.st4{fill:none;stroke:#39B54A;stroke-width:23.8638;stroke-linecap:round;stroke-miterlimit:10;}
	.st5{fill:#00A651;stroke:#00A651;stroke-width:5.9659;stroke-linejoin:round;stroke-miterlimit:10;}
</style>
<g>
	<path class="st0" d="M127.2,267.8c-16-3.1-31-9.3-44.4-18.4l-6.1-4.1l4.4-5.9c0.8-1.1,1.5-2.1,2.2-3.1l-19.6-19.6
		c-1,0.7-2.1,1.5-3.1,2.2l-5.9,4.4l-4.1-6.1c-9.1-13.5-15.3-28.4-18.4-44.4l-1.4-7.2l7.2-1.1c1.3-0.2,2.6-0.4,3.8-0.6v-27.7
		c-1.2-0.2-2.5-0.4-3.8-0.6l-7.3-1.1l1.4-7.2c3.1-16,9.3-31,18.4-44.4l4.1-6.1l5.9,4.4c1.1,0.8,2.1,1.5,3.1,2.2l19.6-19.6
		c-0.7-1-1.5-2.1-2.2-3.1l-4.4-5.9l6.1-4.1c13.5-9.1,28.4-15.3,44.4-18.4l7.2-1.4l1.1,7.3c0.2,1.3,0.4,2.6,0.6,3.8h27.7
		c0.2-1.2,0.4-2.5,0.6-3.8l1.1-7.2l7.2,1.4c16,3.1,31,9.3,44.4,18.4l6.1,4.1l-4.4,5.9c-0.8,1.1-1.5,2.1-2.2,3.1l19.6,19.6
		c1-0.7,2.1-1.5,3.1-2.2l5.9-4.4l4.1,6.1c9.1,13.5,15.3,28.4,18.4,44.4l1.4,7.2l-7.3,1.1c-1.3,0.2-2.6,0.4-3.8,0.6v27.7
		c1.2,0.2,2.5,0.4,3.8,0.6l7.3,1.1l-1.4,7.2c-3.1,16-9.3,31-18.4,44.4l-4.1,6.1l-5.9-4.4c-1.1-0.8-2.1-1.5-3.1-2.2l-19.6,19.6
		c0.7,1,1.5,2.1,2.2,3.1l4.4,5.9l-6.1,4.1c-13.5,9.1-28.4,15.3-44.4,18.4l-7.2,1.4l-1.1-7.3c-0.2-1.3-0.4-2.6-0.6-3.8h-27.7
		c-0.2,1.2-0.4,2.5-0.6,3.8l-1.1,7.3L127.2,267.8z M150,137c-7.2,0-13,5.8-13,13c0,7.2,5.8,13,13,13c7.2,0,13-5.8,13-13
		C163,142.8,157.2,137,150,137z"/>
	<path class="st1" d="M171.5,39.1c15.3,2.9,29.4,8.9,41.8,17.3c-1.8,2.5-3.8,5.3-5.6,8.3l10.9,10.9l5.9,5.9l10.9,10.9
		c3-1.8,5.8-3.7,8.3-5.6c8.4,12.4,14.4,26.6,17.3,41.8c-3.1,0.5-6.4,1.1-9.8,1.9v15.4v8.3v15.4c3.4,0.8,6.7,1.4,9.8,1.9
		c-2.9,15.3-8.9,29.4-17.3,41.8c-2.5-1.8-5.3-3.8-8.3-5.6l-10.9,10.9l-5.9,5.9l-10.9,10.9c1.8,3,3.7,5.8,5.6,8.3
		c-12.4,8.4-26.6,14.4-41.8,17.3c-0.5-3.1-1.1-6.4-1.9-9.8h-15.4h-8.3h-15.4c-0.8,3.4-1.4,6.7-1.9,9.8c-15.3-2.9-29.4-8.9-41.8-17.3
		c1.8-2.5,3.8-5.3,5.6-8.3l-10.9-10.9l-5.9-5.9l-10.9-10.9c-3,1.8-5.8,3.7-8.3,5.6C48,200.9,42,186.7,39.1,171.5
		c3.1-0.5,6.4-1.1,9.8-1.9v-15.4v-8.3v-15.4c-3.4-0.8-6.7-1.4-9.8-1.9C42,113.3,48,99.1,56.4,86.7c2.5,1.8,5.3,3.8,8.3,5.6
		l10.9-10.9l5.9-5.9l10.9-10.9c-1.8-3-3.7-5.8-5.6-8.3C99.1,48,113.3,42,128.5,39.1c0.5,3.1,1.1,6.4,1.9,9.8h15.4h8.3h15.4
		C170.4,45.5,171,42.2,171.5,39.1 M150,170c11.1,0,20-9,20-20s-9-20-20-20s-20,9-20,20S138.9,170,150,170 M159.7,22.5l-1.9,12.3
		h-3.7h-8.3h-3.7l-1.9-12.3l-14.4,2.8c-17,3.3-32.8,9.8-47.1,19.5l-12.1,8.2l7.4,10l-2.6,2.6l-5.9,5.9L63,74.1l-10-7.4l-8.2,12.1
		c-9.7,14.3-16.2,30.1-19.5,47.1l-2.8,14.4l12.3,1.9v3.7v8.3v3.7l-12.3,1.9l2.8,14.4c3.3,17,9.8,32.8,19.5,47.1l8.2,12.1l10-7.4
		l2.6,2.6l5.9,5.9l2.6,2.6l-7.4,10l12.1,8.2c14.3,9.7,30.1,16.2,47.1,19.5l14.4,2.8l1.9-12.3h3.7h8.3h3.7l1.9,12.3l14.4-2.8
		c17-3.3,32.8-9.8,47.1-19.5l12.1-8.2l-7.4-10l2.6-2.6l5.9-5.9l2.6-2.6l10,7.4l8.2-12.1c9.7-14.3,16.2-30.1,19.5-47.1l2.8-14.4
		l-12.3-1.9v-3.7v-8.3v-3.7l12.3-1.9l-2.8-14.4c-3.3-17-9.8-32.8-19.5-47.1l-8.2-12.1l-10,7.4l-2.6-2.6l-5.9-5.9l-2.6-2.6l7.4-10
		l-12.1-8.2c-14.3-9.7-30.1-16.2-47.1-19.5L159.7,22.5L159.7,22.5z M150,155.9c-3.3,0-5.9-2.7-5.9-5.9c0-3.3,2.7-5.9,5.9-5.9
		s5.9,2.7,5.9,5.9C155.9,153.3,153.3,155.9,150,155.9L150,155.9z"/>
</g>
<circle class="st1" cx="150" cy="150" r="21"/>
</svg>
