<?xml version="1.0" encoding="utf-8"?>
<!-- Generator: Adobe Illustrator 27.3.1, SVG Export Plug-In . SVG Version: 6.00 Build 0)  -->
<svg version="1.1" id="Layer_1" xmlns="http://www.w3.org/2000/svg" xmlns:xlink="http://www.w3.org/1999/xlink" x="0px" y="0px"
	 viewBox="0 0 300 300" style="enable-background:new 0 0 300 300;" xml:space="preserve">
<style type="text/css">
	.st0{fill:#58595B;}
	.st1{fill:#414042;}
	.st2{stroke:#000000;stroke-width:23.8638;stroke-linecap:round;stroke-miterlimit:10;}
	.st3{stroke:#000000;stroke-width:5.9659;stroke-linejoin:round;stroke-miterlimit:10;}
	.st4{fill:none;stroke:#39B54A;stroke-width:23.8638;stroke-linecap:round;stroke-miterlimit:10;}
	.st5{fill:#00A651;stroke:#00A651;stroke-width:5.9659;stroke-linejoin:round;stroke-miterlimit:10;}
</style>
<path d="M263.8,154.7v-9.3V128c3.8-0.9,7.6-1.6,11-2.1c-3.3-17.2-10-33.1-19.5-47.1c-2.8,2.1-6,4.3-9.3,6.3l-12.3-12.3l-6.6-6.6
	L214.9,54c2-3.3,4.2-6.5,6.3-9.3c-14-9.5-29.9-16.2-47.1-19.5c-0.5,3.5-1.2,7.2-2.1,11h-17.3h-9.3H128c-0.9-3.8-1.6-7.6-2.1-11
	c-17.2,3.3-33.1,10-47.1,19.5c2.1,2.8,4.3,6,6.3,9.3L72.8,66.2l-6.6,6.6L54,85.1c-3.3-2-6.5-4.2-9.3-6.3
	c-9.5,14-16.2,29.9-19.5,47.1c3.5,0.5,7.2,1.2,11,2.1v17.3v9.3V172c-3.8,0.9-7.6,1.6-11,2.1c3.3,17.2,10,33.1,19.5,47.1
	c2.8-2.1,6-4.3,9.3-6.3l12.3,12.3l6.6,6.6L85.1,246c-2,3.3-4.2,6.5-6.3,9.3c14,9.5,29.9,16.2,47.1,19.5c0.5-3.5,1.2-7.2,2.1-11h17.3
	h9.3H172c0.9,3.8,1.6,7.6,2.1,11c17.2-3.3,33.1-10,47.1-19.5c-2.1-2.8-4.3-6-6.3-9.3l12.3-12.3l6.6-6.6l12.3-12.3
	c3.3,2,6.5,4.2,9.3,6.3c9.5-14,16.2-29.9,19.5-47.1c-3.5-0.5-7.2-1.2-11-2.1V154.7z M150,172.5c-12.4,0-22.5-10.1-22.5-22.5
	s10.1-22.5,22.5-22.5s22.5,10.1,22.5,22.5S162.4,172.5,150,172.5z"/>
</svg>
