<?xml version="1.0" encoding="utf-8"?>
<!-- Generator: Adobe Illustrator 27.3.1, SVG Export Plug-In . SVG Version: 6.00 Build 0)  -->
<svg version="1.1" id="Layer_1" xmlns="http://www.w3.org/2000/svg" xmlns:xlink="http://www.w3.org/1999/xlink" x="0px" y="0px"
	 viewBox="0 0 300 300" style="enable-background:new 0 0 300 300;" xml:space="preserve">
<style type="text/css">
	.st0{fill:none;stroke:#39B54A;stroke-width:5.9702;stroke-linecap:round;stroke-miterlimit:10;}
	.st1{fill:#00A651;stroke:#00A651;stroke-width:1.4925;stroke-linejoin:round;stroke-miterlimit:10;}
	.st2{fill:#00A651;stroke:#00A651;stroke-width:2.9851;stroke-linejoin:round;stroke-miterlimit:10;}
	.st3{fill:#00A651;}
	.st4{fill:#00A651;stroke:#39B54A;stroke-width:2.9851;stroke-miterlimit:10;}
</style>
<g>
	<g>
		<g>
			<g>
				<path class="st2" d="M137.5,126.6L137.5,126.6c12.4-7.1,16.7-23,9.6-35.4l0,0l0,0C134.7,98.3,130.4,114.2,137.5,126.6
					L137.5,126.6z"/>
				<path class="st3" d="M140.8,134.1c0,0-4.7-7.2-0.9-12.5l-2.5,0.4c0,0-2.6,7.3,0.1,11L140.8,134.1z"/>
			</g>
			<g>
				<path class="st2" d="M133.2,132.6L133.2,132.6c-7.4,12.3-23.3,16.2-35.6,8.8l0,0l0,0C105,129.1,121,125.2,133.2,132.6
					L133.2,132.6z"/>
				<path class="st3" d="M140.7,136.1c0,0-7.1-4.9-12.4-1.2l0.5-2.5c0,0,7.3-2.4,11,0.4L140.7,136.1z"/>
			</g>
			<g>
				<path class="st2" d="M128,122.5L128,122.5c-13.7,4.2-28.2-3.5-32.4-17.2l0,0l0,0C109.3,101.1,123.8,108.8,128,122.5L128,122.5z"
					/>
			</g>
		</g>
		<path class="st3" d="M125.6,119.4c0,0,21.4,17.6,28.5,32.3l-2.1,2.2c0,0-6.6-15.5-26.8-32.7"/>
	</g>
	<g>
		<g>
			<g>
				<path class="st2" d="M154.5,55.6L154.5,55.6c14.3,1,26.7-9.8,27.7-24.1v0l0,0C167.8,30.5,155.5,41.3,154.5,55.6L154.5,55.6z"/>
				<path class="st3" d="M153.1,63.8c0,0,0-8.6,6.1-10.9l-2.3-1.1c0,0-6.2,4.6-6,9.2L153.1,63.8z"/>
			</g>
			<g>
				<path class="st2" d="M147.6,58.2L147.6,58.2c-13,6.1-28.4,0.6-34.5-12.4l0,0l0,0C126.1,39.7,141.5,45.3,147.6,58.2L147.6,58.2z"
					/>
				<path class="st3" d="M151.9,65.3c0,0-3.2-8-9.7-7.9l1.8-1.8c0,0,7.4,2,8.9,6.4L151.9,65.3z"/>
			</g>
			<g>
				<path class="st2" d="M148.9,47L148.9,47c-13.7-4.1-21.5-18.6-17.4-32.3l0,0l0,0C145.2,18.8,153,33.2,148.9,47L148.9,47z"/>
			</g>
		</g>
		<path class="st3" d="M148.6,43c0,0,8.1,26.5,5.8,42.7l-2.9,0.7c0,0,3.1-16.5-4.1-42.1"/>
	</g>
	<line class="st0" x1="152.2" y1="285.3" x2="152.2" y2="64.5"/>
	<path class="st1" d="M153.1,264.1L153.1,264.1c-8.5,0-15.3-6.9-15.3-15.3v0h0C146.2,248.7,153.1,255.6,153.1,264.1L153.1,264.1z"/>
	<path class="st1" d="M151.3,264.1L151.3,264.1c8.5,0,15.3-6.9,15.3-15.3v0h0C158.2,248.7,151.3,255.6,151.3,264.1L151.3,264.1z"/>
	<g>
		<path class="st2" d="M157.8,220.1L157.8,220.1c13.2,5.5,28.4-0.8,33.9-14.1v0l0,0C178.4,200.5,163.2,206.8,157.8,220.1
			L157.8,220.1z"/>
		<path class="st3" d="M153.9,227.3c0,0,2.8-8.2,9.3-8.4l-1.9-1.7c0,0-7.3,2.4-8.6,6.9L153.9,227.3z"/>
	</g>
	<g>
		<path class="st2" d="M146.6,220.1L146.6,220.1c-13.2,5.5-28.4-0.8-33.9-14.1l0,0l0,0C126,200.5,141.2,206.8,146.6,220.1
			L146.6,220.1z"/>
		<path class="st3" d="M150.5,227.3c0,0-2.8-8.2-9.3-8.4l1.9-1.7c0,0,7.3,2.4,8.6,6.9L150.5,227.3z"/>
	</g>
	<g>
		<g>
			<g>
				<path class="st2" d="M162.4,170.9L162.4,170.9c-13.6-4.5-21-19.1-16.5-32.8l0,0l0,0C159.5,142.6,166.9,157.3,162.4,170.9
					L162.4,170.9z"/>
				<path class="st3" d="M160.6,178.9c0,0,3.2-8-1.6-12.4l2.6-0.1c0,0,4,6.6,2.1,10.8L160.6,178.9z"/>
			</g>
			<g>
				<path class="st2" d="M167.8,175.8L167.8,175.8c9.7,10.5,26.1,11.2,36.7,1.5l0,0l0,0C194.7,166.8,178.3,166.1,167.8,175.8
					L167.8,175.8z"/>
				<path class="st3" d="M161.2,180.8c0,0,6-6.2,11.9-3.7l-1-2.4c0,0-7.7-0.9-10.7,2.6L161.2,180.8z"/>
			</g>
			<g>
				<path class="st2" d="M170.9,164.9L170.9,164.9c14.3,1.4,26.9-9.1,28.3-23.4v0l0,0C184.9,140.2,172.3,150.7,170.9,164.9
					L170.9,164.9z"/>
			</g>
		</g>
		<path class="st3" d="M172.6,161.4c0,0-17.5,21.5-21.5,37.4l2.5,1.7c0,0,3.4-16.5,19.7-37.4"/>
	</g>
</g>
</svg>
