<?xml version="1.0" encoding="utf-8"?>
<!-- Generator: Adobe Illustrator 27.3.1, SVG Export Plug-In . SVG Version: 6.00 Build 0)  -->
<svg version="1.1" id="Layer_1" xmlns="http://www.w3.org/2000/svg" xmlns:xlink="http://www.w3.org/1999/xlink" x="0px" y="0px"
	 viewBox="0 0 300 300" style="enable-background:new 0 0 300 300;" xml:space="preserve">
<style type="text/css">
	.st0{fill:none;stroke:#39B54A;stroke-width:5.9702;stroke-linecap:round;stroke-miterlimit:10;}
	.st1{fill:#00A651;stroke:#00A651;stroke-width:1.4925;stroke-linejoin:round;stroke-miterlimit:10;}
	.st2{fill:#00A651;stroke:#00A651;stroke-width:2.9851;stroke-linejoin:round;stroke-miterlimit:10;}
	.st3{fill:#00A651;}
	.st4{fill:#00A651;stroke:#39B54A;stroke-width:2.9851;stroke-miterlimit:10;}
</style>
<g>
	<g>
		<path class="st2" d="M155.6,220.1L155.6,220.1c13.2,5.5,28.4-0.8,33.9-14.1v0l0,0C176.2,200.5,161,206.8,155.6,220.1L155.6,220.1z
			"/>
		<path class="st3" d="M151.7,227.3c0,0,2.8-8.2,9.3-8.4l-1.9-1.7c0,0-7.3,2.4-8.6,6.9L151.7,227.3z"/>
	</g>
	<g>
		<path class="st2" d="M144.4,220.1L144.4,220.1c-13.2,5.5-28.4-0.8-33.9-14.1l0,0l0,0C123.8,200.5,139,206.8,144.4,220.1
			L144.4,220.1z"/>
		<path class="st3" d="M148.3,227.3c0,0-2.8-8.2-9.3-8.4l1.9-1.7c0,0,7.3,2.4,8.6,6.9L148.3,227.3z"/>
	</g>
	<line class="st0" x1="150" y1="285.3" x2="150" y2="217.2"/>
	<path class="st1" d="M150.9,264.1L150.9,264.1c-8.5,0-15.3-6.9-15.3-15.3v0h0C144,248.7,150.9,255.6,150.9,264.1L150.9,264.1z"/>
	<path class="st1" d="M149.1,264.1L149.1,264.1c8.5,0,15.3-6.9,15.3-15.3v0h0C156,248.7,149.1,255.6,149.1,264.1L149.1,264.1z"/>
</g>
</svg>
